HIERARCHY
ROOT Hips
{
  OFFSET -31.5692 30.0904 122.763
  CHANNELS 6 Xposition Yposition Zposition Zrotation Xrotation Yrotation
  JOINT LeftUpLeg
  {
    OFFSET 8.64259 1.95398 -2.38835
    CHANNELS 3 Zrotation Xrotation Yrotation
    JOINT LeftLeg
    {
      OFFSET 43.7702 0 0
      CHANNELS 3 Zrotation Xrotation Yrotation
      JOINT LeftFoot
      {
        OFFSET 40.6238 0 0
        CHANNELS 3 Zrotation Xrotation Yrotation
        JOINT LeftToeBase
        {
          OFFSET 12.7242 0 0
          CHANNELS 3 Zrotation Xrotation Yrotation
          End Site
          {
            OFFSET 0 0 0
          }
        }
      }
    }
  }
  JOINT RightUpLeg
  {
    OFFSET -8.2249 1.95398 -2.59336
    CHANNELS 3 Zrotation Xrotation Yrotation
    JOINT RightLeg
    {
      OFFSET 43.5653 0 0
      CHANNELS 3 Zrotation Xrotation Yrotation
      JOINT RightFoot
      {
        OFFSET 40.6238 0 0
        CHANNELS 3 Zrotation Xrotation Yrotation
        JOINT RightToeBase
        {
          OFFSET 12.7242 0 0
          CHANNELS 3 Zrotation Xrotation Yrotation
          End Site
          {
            OFFSET 0 0 0
          }
        }
      }
    }
  }
  JOINT Spine
  {
    OFFSET 0.165834 0.87714 6.61349
    CHANNELS 3 Zrotation Xrotation Yrotation
    JOINT Spine1
    {
      OFFSET 7.38963 1.71661e-005 0
      CHANNELS 3 Zrotation Xrotation Yrotation
      JOINT Spine2
      {
        OFFSET 11.9445 1.14441e-005 0
        CHANNELS 3 Zrotation Xrotation Yrotation
        JOINT Spine3
        {
          OFFSET 14.7254 4.19617e-005 0
          CHANNELS 3 Zrotation Xrotation Yrotation
          JOINT Spine4
          {
            OFFSET 10.9679 0 0
            CHANNELS 3 Zrotation Xrotation Yrotation
            JOINT RightShoulder
            {
              OFFSET 2.46616 -1.6653 3.69651
              CHANNELS 3 Zrotation Xrotation Yrotation
              JOINT RightArm
              {
                OFFSET 13.0012 0 0
                CHANNELS 3 Zrotation Xrotation Yrotation
                JOINT RightForeArm
                {
                  OFFSET 28.7848 1.62311e-005 0
                  CHANNELS 3 Zrotation Xrotation Yrotation
                  JOINT RightHand
                  {
                    OFFSET 26.5688 1.62095e-005 0
                    CHANNELS 3 Zrotation Xrotation Yrotation
                    End Site
                    {
                      OFFSET 0 0 0
                    }
                  }
                }
              }
            }
            JOINT LeftShoulder
            {
              OFFSET 2.38034 -1.29275 -3.7523
              CHANNELS 3 Zrotation Xrotation Yrotation
              JOINT LeftArm
              {
                OFFSET 16.3182 6.07031e-005 0
                CHANNELS 3 Zrotation Xrotation Yrotation
                JOINT LeftForeArm
                {
                  OFFSET 27.0901 0 0
                  CHANNELS 3 Zrotation Xrotation Yrotation
                  JOINT LeftHand
                  {
                    OFFSET 24.5451 1.51738e-005 0
                    CHANNELS 3 Zrotation Xrotation Yrotation
                    End Site
                    {
                      OFFSET 0 0 0
                    }
                  }
                }
              }
            }
            JOINT Neck
            {
              OFFSET 5.0226 -0.0266342 0
              CHANNELS 3 Zrotation Xrotation Yrotation
              JOINT Head
              {
                OFFSET 6.69364 2.86102e-005 0
                CHANNELS 3 Zrotation Xrotation Yrotation
                End Site
                {
                  OFFSET 0 0 0
                }
              }
            }
          }
        }
      }
    }
  }
}
MOTION
Frames:	6
Frame Time:	0.0416667
32.5631 44.0214 0.252437 -4.06053 -79.2129 -4.11822 -33.7207 59.7976 -20.6361 -141.576 21.4355 7.59017 98.8588 27.1386 -0.896906 4.76085 -15.0712 4.30206 50.7349 53.4761 -167.853 -141.393 -12.5719 -7.83646 96.4386 -28.6512 -6.75609 17.1591 3.30411 6.91124 0.728697 12.2346 -90.4475 2.40803 1.28098 -0.851366 -9.2626 1.24226 -0.906936 -31.8021 1.47761 -0.426958 -11.7894 1.47761 -0.426966 87.4269 -17.0671 -119.08 -11.3277 18.6771 -43.6977 2.50854 4.04398 -10.1655 0.109593 0.0193746 -29.3934 -92.4391 -27.4901 67.6443 7.62618 -13.861 -74.4229 1.05134 -17.9307 0.000243926 -25.9912 2.36365 -20.7252 46.6271 -0.768913 -1.1796 -16.6598 -0.0491418 -0.0524067 
32.4999 43.3672 0.777027 -5.73712 -80.3631 -5.73178 -34.6496 60.6184 -19.3673 -142.728 20.9235 7.64324 100.664 28.7507 -0.457446 3.16553 -15.103 2.85765 51.9237 53.4422 -169.211 -142.703 -12.2568 -7.99758 96.882 -29.2758 -7.48735 16.5387 2.84875 9.14948 0.73291 12.0731 -90.4355 2.73108 1.29304 -0.834084 -8.93954 1.25507 -0.8902 -31.4792 1.48392 -0.406852 -11.4665 1.48392 -0.40686 87.4453 -17.1294 -118.993 -10.4009 17.5793 -43.7874 2.92363 3.66847 -10.5478 2.30979 -0.456239 -28.2811 -92.4203 -28.2785 68.0223 5.81433 -11.9575 -74.0488 1.3904 -16.2541 0.000116513 -27.4542 2.79526 -21.3595 47.0618 -1.02788 -1.00858 -16.5127 -0.378808 -0.0673991 
32.465 45.6448 0.289049 -5.81313 -77.652 -6.02933 -35.9379 60.5776 -18.468 -139.155 22.263 7.3277 99.4236 28.2085 0.112857 3.43968 -15.06 3.0472 50.8571 54.4752 -167.811 -139.347 -15.0477 -7.67161 94.7123 -27.3743 -6.69107 17.9163 2.96284 6.99768 0.739332 11.7046 -90.3281 3.46753 1.3463 -0.637417 -8.2029 1.31693 -0.696064 -30.7434 1.47561 -0.203258 -10.7308 1.47561 -0.203255 87.1988 -17.3734 -119.402 -10.4862 16.9024 -43.5254 3.33205 3.09305 -10.6618 1.26987 -0.265134 -27.9939 -92.5594 -28.5686 67.8785 6.07553 -11.1323 -72.4994 1.17736 -17.0487 0.000197108 -26.8658 2.68189 -21.4717 48.7241 -1.23523 -1.09411 -16.7312 -0.507896 -0.0427168 
32.3872 50.9278 -0.969964 -4.15567 -71.9352 -4.75399 -38.4401 61.0016 -17.3482 -130.223 25.2324 5.6906 96.7179 26.551 0.898387 5.43334 -14.0687 3.38829 49.9357 56.6898 -166.149 -130.782 -19.4487 -5.99938 92.2001 -25.2979 -6.15058 17.0322 3.10506 7.71269 0.715943 11.2371 -90.2192 4.4017 1.34143 -0.441473 -7.26864 1.3207 -0.500101 -29.8094 1.41208 -0.017836 -9.79669 1.41208 -0.0178324 87.5645 -17.4519 -118.49 -8.80124 16.8293 -44.9874 3.03625 3.98787 -10.6851 0.763195 -0.119621 -28.2376 -92.5396 -28.9987 68.0977 4.93968 -10.9874 -72.6672 1.22748 -14.7172 0.000440184 -25.9892 2.82964 -22.1083 50.5872 -1.53698 -1.20588 -17.2225 -0.723914 0.170477 
32.1423 58.0765 -2.35725 -2.6087 -65.6 -3.02465 -41.3654 64.0125 -16.6705 -116.899 27.7647 1.62701 93.6153 24.0608 1.07365 4.7142 -13.9131 2.46814 52.1318 60.3444 -167.162 -118.083 -24.804 -2.02184 88.9358 -22.6601 -6.03924 16.9495 3.29064 7.22016 0.705946 10.7948 -90.1715 5.28606 1.33952 -0.364046 -6.38426 1.32219 -0.422666 -28.925 1.38698 0.0554354 -8.91232 1.38699 0.0554386 87.2249 -18.506 -118.57 -8.09415 16.5302 -45.1614 2.96823 1.09821 -10.3861 -0.159484 -0.0708685 -27.1731 -92.7012 -29.3982 67.9591 3.63452 -10.8904 -72.5267 1.431 -8.01384 0.00149343 -24.526 3.53086 -24.5752 50.734 -2.12891 -1.83973 -17.2464 -0.951089 0.631084 
31.8751 66.0774 -3.23055 -2.00702 -58.862 -1.93784 -44.8809 68.2603 -14.8394 -100.273 30.5222 -5.13637 88.1234 19.9481 1.33304 7.71961 -12.9136 3.75176 57.0165 64.6729 -171.524 -101.33 -28.5186 5.05733 85.8947 -19.4852 -4.26165 15.5224 3.24996 9.13263 0.694163 10.322 -90.1558 6.23169 1.32092 -0.349461 -5.43864 1.30425 -0.407274 -27.9792 1.36486 0.0637646 -7.96654 1.36487 0.0637595 86.8139 -19.5727 -118.797 -7.10963 16.0848 -44.2975 2.67088 -1.54788 -10.8578 -1.77444 0.113734 -26.6485 -92.8822 -30.1668 67.9383 3.83644 -10.5442 -71.4708 1.33842 -1.49383 0.00310103 -22.4303 3.59252 -25.0491 50.57 -2.20375 -1.82607 -16.2951 -0.931673 -0.149402 
